<?xml version="1.0" standalone="no"?>
<!DOCTYPE svg PUBLIC "-//W3C//DTD SVG 20010904//EN"
 "http://www.w3.org/TR/2001/REC-SVG-20010904/DTD/svg10.dtd">
<svg version="1.0" xmlns="http://www.w3.org/2000/svg"
 width="512.000000pt" height="512.000000pt" viewBox="0 0 512.000000 512.000000"
 preserveAspectRatio="xMidYMid meet">
<metadata>
Created by potrace 1.11, written by Peter Selinger 2001-2013
</metadata>
<g transform="translate(0.000000,512.000000) scale(0.100000,-0.100000)"
fill="#000000" stroke="none">
<path d="M2328 5110 c-165 -26 -335 -100 -450 -194 -207 -171 -348 -455 -409
-821 -25 -150 -37 -402 -21 -432 12 -22 47 -36 112 -47 l35 -6 -1 -317 -2
-318 -173 -157 -173 -157 -48 42 c-125 108 -140 119 -167 112 -14 -3 -34 -15
-43 -26 -21 -25 -117 -314 -152 -459 -57 -238 -70 -347 -71 -605 0 -215 2
-251 24 -350 48 -228 131 -423 259 -615 101 -153 302 -356 452 -457 317 -214
671 -316 1040 -300 260 12 475 68 715 189 282 142 571 425 724 708 94 175 167
402 192 595 17 131 6 449 -20 605 -39 225 -163 652 -202 691 -38 38 -73 26
-165 -56 l-85 -76 -52 47 c-319 288 -329 296 -361 291 -17 -2 -38 -7 -47 -11
-13 -6 -17 8 -25 81 -9 76 -9 90 5 102 27 23 232 119 311 145 41 13 134 37
205 52 72 14 154 35 183 46 96 36 192 110 320 248 105 112 122 134 122 163 0
64 -117 382 -207 562 -51 102 -133 197 -219 254 -120 81 -220 111 -442 133
l-124 12 6 34 c9 56 -8 80 -76 111 -113 51 -359 131 -482 157 -135 28 -386 40
-488 24z m432 -165 c47 -9 123 -27 170 -41 82 -25 271 -92 279 -100 5 -5 -39
-176 -48 -186 -3 -4 -118 11 -255 33 -248 41 -249 41 -275 21 -22 -16 -35 -52
-91 -255 -36 -130 -68 -238 -71 -241 -3 -3 -117 13 -253 35 -246 41 -248 42
-273 23 -22 -17 -36 -56 -93 -257 -37 -130 -69 -240 -72 -243 -4 -3 -47 2 -97
11 l-91 17 0 47 c0 25 7 103 15 172 66 571 323 915 730 979 84 13 323 5 425
-15z m695 -320 c118 -9 248 -33 302 -56 72 -31 167 -103 207 -157 57 -79 216
-442 216 -495 0 -11 -46 -15 -222 -20 -431 -12 -726 -62 -1032 -174 -167 -60
-242 -80 -360 -93 -91 -11 -119 -30 -119 -79 0 -17 8 -40 19 -52 18 -20 26
-21 109 -15 117 7 220 33 390 96 231 85 477 135 794 160 166 12 351 13 351 1
0 -20 -146 -143 -204 -171 -37 -18 -110 -40 -186 -55 -253 -51 -519 -160 -640
-262 -35 -29 -36 -44 -16 -189 8 -54 16 -125 19 -156 l5 -57 -61 -59 c-34 -33
-81 -76 -104 -96 l-42 -37 -92 83 c-265 238 -290 258 -319 258 -23 0 -66 -34
-216 -169 -164 -148 -190 -168 -206 -157 -9 7 -76 66 -149 132 -72 65 -136
122 -143 126 -13 8 -23 504 -11 594 l7 56 49 -7 c67 -9 94 9 113 78 95 341
119 423 125 430 4 4 115 -11 246 -33 131 -23 249 -39 262 -36 12 4 29 16 36
29 8 12 42 126 77 252 35 127 64 231 65 233 1 1 113 -16 249 -38 294 -48 291
-48 319 45 30 98 34 106 59 101 13 -3 59 -7 103 -11z m-1663 -1922 c222 -202
237 -213 270 -213 34 0 60 20 271 213 72 64 134 117 139 117 5 0 75 -60 156
-133 219 -197 219 -197 255 -197 27 0 59 24 215 165 101 91 187 165 192 165 5
0 62 -48 127 -107 230 -208 248 -223 281 -223 23 0 48 14 96 55 35 30 67 55
70 55 17 0 107 -337 136 -507 106 -615 -45 -1119 -451 -1508 -315 -301 -711
-450 -1149 -432 -394 16 -767 183 -1041 464 -118 120 -180 202 -252 330 -141
250 -201 487 -200 783 1 177 26 365 73 560 37 153 88 310 101 310 5 0 36 -25
69 -55 87 -80 102 -78 226 33 234 210 269 241 278 241 4 1 67 -52 138 -116z"/>
<path d="M2791 4248 c-30 -11 -54 -54 -47 -83 12 -46 44 -56 189 -62 l133 -6
22 28 c27 34 28 55 2 88 -16 20 -32 27 -73 31 -90 10 -206 12 -226 4z"/>
<path d="M2497 2339 c-83 -20 -150 -80 -182 -163 -36 -94 2 -215 87 -276 166
-121 390 -5 389 200 0 156 -147 275 -294 239z"/>
<path d="M1224 2104 c-136 -48 -217 -221 -170 -362 23 -69 91 -143 158 -172
156 -68 342 15 393 176 46 146 -33 311 -173 358 -56 20 -153 19 -208 0z"/>
<path d="M3135 1728 c-86 -16 -174 -65 -246 -137 -154 -155 -190 -365 -94
-558 151 -306 561 -366 793 -116 182 197 173 499 -22 681 -127 117 -270 161
-431 130z"/>
<path d="M1595 1446 c-68 -22 -100 -43 -153 -101 -70 -76 -95 -145 -90 -250 2
-63 9 -92 31 -137 35 -72 97 -134 167 -167 47 -22 69 -26 150 -26 82 0 103 4
152 27 266 124 265 511 -2 637 -65 30 -189 39 -255 17z"/>
</g>
</svg>
